<svg width="25" height="25" viewBox="0 0 25 25" fill="none" xmlns="http://www.w3.org/2000/svg">
<path d="M21.8599 12.6C22.4119 12.6 22.8649 12.151 22.8099 11.602C22.5793 9.30619 21.562 7.16072 19.9302 5.52934C18.2985 3.89796 16.1528 2.88105 13.8569 2.65102C13.3069 2.59602 12.8589 3.04902 12.8589 3.60102V11.601C12.8589 11.8662 12.9642 12.1206 13.1518 12.3081C13.3393 12.4957 13.5937 12.601 13.8589 12.601L21.8599 12.6Z" stroke="#00C3D0" stroke-width="2" stroke-linecap="round" stroke-linejoin="round"/>
<path d="M22.0698 16.4902C21.4336 17.9947 20.4386 19.3204 19.1717 20.3515C17.9047 21.3826 16.4045 22.0876 14.8022 22.405C13.1999 22.7223 11.5442 22.6423 9.97992 22.172C8.41565 21.7016 6.9904 20.8552 5.8288 19.7068C4.66719 18.5584 3.80459 17.1429 3.31641 15.5841C2.82823 14.0253 2.72934 12.3707 3.02838 10.7648C3.32741 9.15896 4.01527 7.6508 5.03182 6.37221C6.04837 5.09361 7.36266 4.08349 8.85978 3.43018" stroke="#00C3D0" stroke-width="2" stroke-linecap="round" stroke-linejoin="round"/>
</svg>
