<svg width="25" height="24" viewBox="0 0 25 24" fill="none" xmlns="http://www.w3.org/2000/svg">
<path d="M14.3599 7C14.636 7 14.8599 6.77614 14.8599 6.5C14.8599 6.22386 14.636 6 14.3599 6C14.0837 6 13.8599 6.22386 13.8599 6.5C13.8599 6.77614 14.0837 7 14.3599 7Z" fill="#00C3D0" stroke="#00C3D0" stroke-width="2" stroke-linecap="round" stroke-linejoin="round"/>
<path d="M18.3599 11C18.636 11 18.8599 10.7761 18.8599 10.5C18.8599 10.2239 18.636 10 18.3599 10C18.0837 10 17.8599 10.2239 17.8599 10.5C17.8599 10.7761 18.0837 11 18.3599 11Z" fill="#00C3D0" stroke="#00C3D0" stroke-width="2" stroke-linecap="round" stroke-linejoin="round"/>
<path d="M9.35986 8C9.63601 8 9.85986 7.77614 9.85986 7.5C9.85986 7.22386 9.63601 7 9.35986 7C9.08372 7 8.85986 7.22386 8.85986 7.5C8.85986 7.77614 9.08372 8 9.35986 8Z" fill="#00C3D0" stroke="#00C3D0" stroke-width="2" stroke-linecap="round" stroke-linejoin="round"/>
<path d="M7.35986 13C7.63601 13 7.85986 12.7761 7.85986 12.5C7.85986 12.2239 7.63601 12 7.35986 12C7.08372 12 6.85986 12.2239 6.85986 12.5C6.85986 12.7761 7.08372 13 7.35986 13Z" fill="#00C3D0" stroke="#00C3D0" stroke-width="2" stroke-linecap="round" stroke-linejoin="round"/>
<path d="M12.8599 2C7.35986 2 2.85986 6.5 2.85986 12C2.85986 17.5 7.35986 22 12.8599 22C13.7859 22 14.5079 21.254 14.5079 20.312C14.5079 19.875 14.3279 19.477 14.0709 19.187C13.7809 18.898 13.6329 18.535 13.6329 18.062C13.6291 17.8419 13.6696 17.6233 13.7521 17.4192C13.8346 17.2151 13.9573 17.0298 14.113 16.8741C14.2686 16.7185 14.454 16.5957 14.6581 16.5132C14.8622 16.4308 15.0808 16.3902 15.3009 16.394H17.2969C20.3479 16.394 22.8519 13.891 22.8519 10.84C22.8249 6.012 18.3209 2 12.8599 2Z" stroke="#00C3D0" stroke-width="2" stroke-linecap="round" stroke-linejoin="round"/>
</svg>
