<svg width="33" height="33" viewBox="0 0 33 33" fill="none" xmlns="http://www.w3.org/2000/svg">
<path d="M21.7331 28.8V26.1334C21.7331 24.7189 21.1712 23.3623 20.171 22.3621C19.1708 21.362 17.8142 20.8 16.3997 20.8H8.39974C6.98525 20.8 5.6287 21.362 4.6285 22.3621C3.62831 23.3623 3.06641 24.7189 3.06641 26.1334V28.8" stroke="#00C3D0" stroke-width="2.66667" stroke-linecap="round" stroke-linejoin="round"/>
<path d="M12.3997 15.4667C15.3453 15.4667 17.7331 13.0789 17.7331 10.1334C17.7331 7.18786 15.3453 4.80005 12.3997 4.80005C9.45422 4.80005 7.06641 7.18786 7.06641 10.1334C7.06641 13.0789 9.45422 15.4667 12.3997 15.4667Z" stroke="#00C3D0" stroke-width="2.66667" stroke-linecap="round" stroke-linejoin="round"/>
<path d="M29.7334 28.8001V26.1334C29.7325 24.9517 29.3392 23.8038 28.6152 22.8698C27.8912 21.9359 26.8776 21.2688 25.7334 20.9734" stroke="#00C3D0" stroke-width="2.66667" stroke-linecap="round" stroke-linejoin="round"/>
<path d="M21.7334 4.97339C22.8806 5.26712 23.8974 5.93432 24.6236 6.8698C25.3497 7.80528 25.7439 8.95583 25.7439 10.1401C25.7439 11.3243 25.3497 12.4748 24.6236 13.4103C23.8974 14.3458 22.8806 15.013 21.7334 15.3067" stroke="#00C3D0" stroke-width="2.66667" stroke-linecap="round" stroke-linejoin="round"/>
</svg>
