<svg width="25" height="25" viewBox="0 0 25 25" fill="none" xmlns="http://www.w3.org/2000/svg">
<path d="M16.1997 8.39941C17.791 8.39941 19.3171 9.03156 20.4423 10.1568C21.5676 11.282 22.1997 12.8081 22.1997 14.3994V21.3994H18.1997V14.3994C18.1997 13.869 17.989 13.3603 17.6139 12.9852C17.2388 12.6101 16.7301 12.3994 16.1997 12.3994C15.6693 12.3994 15.1606 12.6101 14.7855 12.9852C14.4104 13.3603 14.1997 13.869 14.1997 14.3994V21.3994H10.1997V14.3994C10.1997 12.8081 10.8318 11.282 11.9571 10.1568C13.0823 9.03156 14.6084 8.39941 16.1997 8.39941Z" stroke="#00C3D0" stroke-width="2" stroke-linecap="round" stroke-linejoin="round"/>
<path d="M6.19971 9.39941H2.19971V21.3994H6.19971V9.39941Z" stroke="#00C3D0" stroke-width="2" stroke-linecap="round" stroke-linejoin="round"/>
<path d="M4.19971 6.39941C5.30428 6.39941 6.19971 5.50398 6.19971 4.39941C6.19971 3.29484 5.30428 2.39941 4.19971 2.39941C3.09514 2.39941 2.19971 3.29484 2.19971 4.39941C2.19971 5.50398 3.09514 6.39941 4.19971 6.39941Z" stroke="#00C3D0" stroke-width="2" stroke-linecap="round" stroke-linejoin="round"/>
</svg>
