<svg width="21" height="21" viewBox="0 0 21 21" fill="none" xmlns="http://www.w3.org/2000/svg">
<path d="M17.0667 9.13346C17.0667 13.2943 12.4509 17.6276 10.9009 18.966C10.7565 19.0745 10.5807 19.1333 10.4001 19.1333C10.2194 19.1333 10.0436 19.0745 9.89923 18.966C8.34923 17.6276 3.7334 13.2943 3.7334 9.13346C3.7334 7.36535 4.43578 5.66966 5.68602 4.41942C6.93626 3.16918 8.63195 2.4668 10.4001 2.4668C12.1682 2.4668 13.8639 3.16918 15.1141 4.41942C16.3644 5.66966 17.0667 7.36535 17.0667 9.13346Z" stroke="#00C3D0" stroke-width="1.66667" stroke-linecap="round" stroke-linejoin="round"/>
<path d="M10.3999 11.6328C11.7806 11.6328 12.8999 10.5135 12.8999 9.13281C12.8999 7.7521 11.7806 6.63281 10.3999 6.63281C9.01919 6.63281 7.8999 7.7521 7.8999 9.13281C7.8999 10.5135 9.01919 11.6328 10.3999 11.6328Z" stroke="#00C3D0" stroke-width="1.66667" stroke-linecap="round" stroke-linejoin="round"/>
</svg>
