<svg width="419" height="37" viewBox="0 0 419 37" fill="none" xmlns="http://www.w3.org/2000/svg">
<g clip-path="url(#clip0_404_1807)">
<path d="M29.6386 15.274V15.214C29.6386 15.118 29.6386 15.026 29.6288 14.93V14.826C29.6288 14.744 29.6288 14.662 29.615 14.582C29.615 14.45 29.5974 14.32 29.5836 14.182C29.5836 14.094 29.5679 14.008 29.5581 13.92C29.5581 13.878 29.5483 13.836 29.5443 13.792L29.5149 13.556C29.5149 13.532 29.5149 13.508 29.505 13.484C29.4933 13.394 29.4795 13.304 29.4658 13.214V13.178C29.4481 13.074 29.4324 12.978 29.4127 12.87V12.836C29.399 12.754 29.3833 12.672 29.3676 12.59C29.3664 12.5774 29.3664 12.5646 29.3676 12.552C29.3676 12.528 29.3675 12.502 29.3518 12.476C29.3322 12.384 29.3106 12.29 29.291 12.196C29.2902 12.1927 29.2902 12.1893 29.291 12.186C29.2674 12.082 29.2418 11.986 29.2183 11.878V11.866C29.2006 11.79 29.179 11.716 29.1594 11.64C29.1594 11.606 29.1417 11.57 29.1319 11.534L29.0337 11.3C29.0337 11.276 29.0199 11.254 29.012 11.228C28.9826 11.134 28.9551 11.04 28.9256 10.946C28.9248 10.9387 28.9248 10.9313 28.9256 10.924C28.8922 10.82 28.8569 10.724 28.8215 10.61V10.594C28.7881 10.496 28.7528 10.394 28.7155 10.298C28.6781 10.202 28.6389 10.098 28.5976 9.99C28.5564 9.882 28.5289 9.82 28.4955 9.736C28.4837 9.706 28.4719 9.676 28.4582 9.648C28.4228 9.564 28.3875 9.48 28.3501 9.398V9.384C28.2598 9.184 28.1675 8.984 28.0693 8.784C28.0202 8.686 27.9711 8.584 27.92 8.494L27.7904 8.25C27.7295 8.14 27.6686 8.03 27.5939 7.924C27.5193 7.818 27.4977 7.76 27.4486 7.678C27.4386 7.65864 27.4275 7.63994 27.4152 7.622L27.2561 7.368L27.2227 7.314L27.0676 7.1L26.9144 6.874L26.8378 6.768C26.7474 6.638 26.6531 6.51 26.5569 6.384L26.4862 6.294C26.3029 6.05667 26.113 5.82467 25.9166 5.598L25.838 5.51C25.507 5.13495 25.1576 4.77716 24.7911 4.438L24.6576 4.318C24.4789 4.154 24.2942 3.996 24.1057 3.842L23.9741 3.736C23.8346 3.624 23.6932 3.514 23.5479 3.406C23.5066 3.374 23.4614 3.344 23.4182 3.312C23.269 3.202 23.1158 3.096 22.9626 2.994C22.886 2.942 22.8094 2.89 22.7308 2.842C22.6522 2.794 22.5756 2.742 22.499 2.694L22.4028 2.636C22.0466 2.42 21.6813 2.22 21.3068 2.036L21.1104 1.938H21.0907L20.965 1.88L20.7686 1.788L20.6645 1.742C20.5251 1.68 20.3856 1.622 20.2442 1.566L20.1165 1.516H20.0989C20.0183 1.486 19.9378 1.454 19.8553 1.426H19.8396C19.7551 1.394 19.6726 1.364 19.5862 1.336L19.4664 1.296C19.3348 1.25 19.2032 1.208 19.0736 1.17L18.8988 1.116L18.6002 1.034L18.3685 0.974C18.1013 0.908 17.8323 0.85 17.5593 0.798L17.3471 0.758H17.3118L17.0682 0.674L16.8875 0.648C16.7815 0.63 16.6754 0.618 16.5674 0.604L16.371 0.582L16.1078 0.556L15.9801 0.546H15.9546C15.8236 0.536667 15.6979 0.528667 15.5775 0.522H15.4026C15.328 0.522 15.2573 0.522 15.1827 0.522H15.0786L14.8134 0.5H14.4442C14.3715 0.5 14.2988 0.5 14.2261 0.5H14.0494C13.9184 0.5 13.7927 0.508 13.6723 0.524H13.6487L13.5191 0.534L13.2559 0.582L13.0594 0.604C12.9534 0.618 12.8454 0.63 12.7472 0.648L12.5723 0.674L12.3131 0.714L12.101 0.754C11.8299 0.806 11.5589 0.864 11.2937 0.93L11.06 0.99L10.7614 1.072L10.5866 1.126C10.4531 1.164 10.3215 1.206 10.1938 1.252L10.074 1.292L9.80097 1.384H9.78526L9.54171 1.474H9.52403L9.40814 1.538C9.26869 1.594 9.12728 1.652 8.98979 1.714L8.88373 1.76L8.68731 1.852L8.55964 1.91H8.54197L8.34556 2.008C7.97041 2.194 7.60704 2.396 7.24957 2.608L7.1553 2.666C7.07673 2.714 7.00013 2.762 6.92157 2.814C6.843 2.866 6.7664 2.914 6.6898 2.966C6.5366 3.068 6.3834 3.166 6.23412 3.284L6.10449 3.378C5.95915 3.486 5.81773 3.596 5.67828 3.708L5.54668 3.814C5.35027 3.968 5.1735 4.126 4.99476 4.29L4.86317 4.41C4.48824 4.75441 4.13095 5.11823 3.79272 5.5L3.71612 5.588C3.5184 5.81467 3.32788 6.04667 3.14456 6.284L3.07385 6.374C2.97957 6.5 2.87744 6.628 2.79298 6.758C2.76745 6.792 2.74191 6.828 2.71834 6.864L2.55925 7.1C2.51015 7.172 2.46301 7.246 2.41587 7.318L2.38052 7.372L2.22142 7.626C2.20915 7.64394 2.198 7.66264 2.18803 7.682C2.13893 7.764 2.08983 7.844 2.04269 7.928C1.99555 8.012 1.91698 8.144 1.85806 8.254C1.79914 8.364 1.76967 8.416 1.72646 8.498C1.68325 8.58 1.62629 8.698 1.57719 8.788C1.47898 8.988 1.38078 9.188 1.29828 9.388V9.402C1.26097 9.484 1.22561 9.568 1.19222 9.652C1.17847 9.68 1.16669 9.71 1.1549 9.74C1.11955 9.824 1.0842 9.908 1.05081 9.994C1.01742 10.08 0.970276 10.194 0.932958 10.302L0.826895 10.598V10.614C0.791541 10.718 0.758151 10.814 0.722797 10.928V10.95C0.691371 11.044 0.663873 11.138 0.634411 11.232C0.634411 11.258 0.620663 11.28 0.61477 11.304C0.589237 11.388 0.565667 11.472 0.542098 11.556C0.542098 11.592 0.522457 11.628 0.5146 11.662L0.455676 11.888V11.9C0.430143 12.002 0.404609 12.1 0.38104 12.208C0.381793 12.2113 0.381793 12.2147 0.38104 12.218C0.361398 12.312 0.339793 12.406 0.322116 12.498C0.322116 12.524 0.310331 12.55 0.306403 12.574C0.305673 12.5867 0.305673 12.5993 0.306403 12.612C0.288071 12.6933 0.272358 12.7753 0.259264 12.858V12.892C0.239623 12.994 0.22391 13.092 0.206233 13.2C0.205267 13.212 0.205267 13.224 0.206233 13.236C0.19052 13.326 0.178735 13.416 0.16695 13.506C0.16695 13.53 0.16695 13.554 0.155166 13.578L0.0844572 13.8C0.0844572 13.844 0.0746366 13.886 0.0707084 13.928C0.0608878 14.016 0.0530313 14.102 0.0451748 14.19C0.0333901 14.32 0.0235695 14.45 0.0137489 14.59C0.0137489 14.67 0.00392824 14.752 0 14.834C0 14.87 0 14.904 0 14.938C0 15.034 0 15.126 0 15.222C0 15.242 0 15.262 0 15.282C0 15.392 0 15.502 0 15.612C0 15.722 0 15.872 0 16.012V16.212C0 16.2933 0.00392824 16.3753 0.0117847 16.458C0.0117847 16.522 0.0117847 16.584 0.0216053 16.658C0.031426 16.732 0.0216053 16.752 0.0216053 16.8C0.0216053 16.848 0.0216053 16.884 0.031426 16.926L0.0432107 17.062C0.0432107 17.128 0.0549954 17.194 0.0628519 17.262C0.0707084 17.33 0.0628519 17.344 0.0766008 17.386C0.0903496 17.428 0.0903496 17.504 0.0982061 17.562C0.106063 17.62 0.113919 17.688 0.12374 17.75C0.137489 17.854 0.151237 17.95 0.168914 18.06C0.178735 18.126 0.188556 18.188 0.20034 18.26C0.212125 18.332 0.221946 18.39 0.233731 18.46L0.251408 18.552L0.310331 18.848C0.351578 19.048 0.396753 19.234 0.445856 19.426C0.494959 19.618 0.540134 19.786 0.593165 19.964C0.785735 20.6244 1.02264 21.2706 1.30221 21.898C1.32382 21.942 1.34346 21.988 1.3631 22.032C1.43774 22.192 1.51237 22.35 1.59094 22.506C1.6479 22.62 1.70682 22.734 1.76771 22.846C1.91698 23.126 2.07411 23.404 2.24303 23.674L2.3432 23.834C2.99164 24.835 3.75447 25.7541 4.61569 26.572L4.75318 26.702H4.763L4.84156 26.776C4.9162 26.846 4.9928 26.916 5.0694 26.976C6.1482 27.9087 7.46655 28.5077 8.86883 28.7022C10.2711 28.8966 11.6988 28.6785 12.9832 28.0735C14.2677 27.4686 15.3554 26.502 16.1178 25.288C16.8803 24.0739 17.2857 22.6631 17.2862 21.222V16.688H14.8114C14.4871 16.6877 14.1658 16.7526 13.866 16.8788C13.5663 17.005 13.2939 17.1902 13.0644 17.4236C12.8349 17.6571 12.6529 17.9343 12.5287 18.2395C12.4045 18.5446 12.3406 18.8717 12.3406 19.202V21.174C12.3467 21.8394 12.0977 22.4809 11.6466 22.9623C11.1954 23.4438 10.5777 23.727 9.92471 23.752C9.34187 23.7671 8.77288 23.5699 8.32002 23.196H8.3102C8.2611 23.156 8.21199 23.112 8.16486 23.066L8.12164 23.024C7.11387 22.0837 6.30919 20.9403 5.75871 19.6664C5.20823 18.3924 4.92399 17.0158 4.92405 15.624C4.92458 13.8099 5.40636 12.0296 6.31847 10.4713C7.23059 8.91303 8.53917 7.63456 10.1059 6.77103C11.6727 5.90749 13.4395 5.49096 15.2195 5.56546C16.9996 5.63995 18.7268 6.2027 20.2187 7.19424C21.7106 8.18578 22.9117 9.56929 23.6952 11.1986C24.4786 12.8278 24.8153 14.6423 24.6696 16.4504C24.524 18.2584 23.9014 19.9928 22.8676 21.4702C21.8338 22.9477 20.4273 24.1133 18.7966 24.844C18.3485 25.0362 17.9661 25.359 17.6973 25.7717C17.4286 26.1845 17.2856 26.6688 17.2862 27.164V30.5C18.4573 30.2999 19.6002 29.956 20.6901 29.476L20.7529 29.448C20.8354 29.412 20.9159 29.376 20.9965 29.336C21.077 29.296 21.1595 29.26 21.24 29.222L21.4954 29.092C21.57 29.056 21.6427 29.016 21.7153 28.976C21.788 28.936 21.8332 28.914 21.8901 28.88L22.0296 28.804L22.0551 28.79L22.3144 28.636C22.4872 28.534 22.6562 28.436 22.8231 28.32L22.9586 28.23C23.2081 28.064 23.4497 27.888 23.6873 27.708L23.8307 27.598C23.9721 27.488 24.1116 27.374 24.2491 27.258C24.3414 27.182 24.4317 27.104 24.5201 27.026L24.6537 26.906L24.9188 26.662L25.1761 26.412L25.4275 26.156C25.5506 26.0227 25.6724 25.8893 25.7929 25.756L25.9127 25.62L26.0305 25.484L26.2583 25.208C26.3723 25.068 26.4823 24.928 26.5883 24.786C26.663 24.688 26.7337 24.586 26.8063 24.49L26.9104 24.344C26.9792 24.244 27.0479 24.144 27.1068 24.044L27.207 23.894C27.2718 23.792 27.3366 23.694 27.4034 23.588L27.4977 23.432C27.5586 23.328 27.6195 23.232 27.6784 23.118L27.7668 22.962C27.8257 22.856 27.8827 22.748 27.9396 22.638C27.9632 22.594 27.9848 22.548 28.0084 22.502C28.0319 22.456 28.0732 22.376 28.1027 22.302C28.1321 22.228 28.1773 22.152 28.2107 22.076C28.2441 22 28.2873 21.912 28.3246 21.83L28.4071 21.63C28.4307 21.574 28.4562 21.518 28.4798 21.46L28.5485 21.292L28.6448 21.046C28.6742 20.97 28.7017 20.892 28.7312 20.814C28.7606 20.736 28.796 20.632 28.8274 20.54L28.9099 20.292C28.9374 20.204 28.9649 20.118 28.9904 20.028C29.016 19.938 29.0435 19.852 29.069 19.764C29.0945 19.676 29.1083 19.624 29.126 19.552L29.1554 19.442C29.1711 19.386 29.1849 19.33 29.1986 19.272C29.2281 19.156 29.2556 19.04 29.2811 18.922L29.3224 18.722C29.344 18.618 29.3656 18.522 29.3852 18.406C29.4049 18.29 29.4186 18.222 29.4324 18.13C29.4461 18.038 29.4579 17.984 29.4697 17.912C29.4697 17.9 29.4697 17.888 29.4697 17.876C29.4795 17.818 29.4874 17.76 29.4952 17.7C29.4962 17.694 29.4962 17.688 29.4952 17.682C29.505 17.622 29.5129 17.56 29.5188 17.5C29.5247 17.44 29.5365 17.354 29.5443 17.28C29.5522 17.206 29.564 17.1 29.5718 17.01C29.5797 16.92 29.5895 16.828 29.5954 16.738C29.5964 16.7274 29.5964 16.7166 29.5954 16.706C29.5954 16.63 29.6072 16.554 29.6111 16.48V16.358C29.6111 16.29 29.6111 16.222 29.6209 16.158C29.6307 16.094 29.6209 15.958 29.6209 15.87C29.6209 15.782 29.6209 15.67 29.6209 15.58C29.6209 15.49 29.6386 15.384 29.6386 15.274Z" fill="#FF2E2E"/>
<path d="M14.4422 8.72998C14.8157 8.72972 15.1857 8.80444 15.5309 8.94989C15.876 9.09533 16.1897 9.30864 16.4538 9.57761C16.718 9.84658 16.9274 10.166 17.0703 10.5174C17.2131 10.8689 17.2865 11.2456 17.2862 11.626V14.52H14.4422C13.6884 14.52 12.9655 14.2151 12.4325 13.6724C11.8995 13.1296 11.6001 12.3935 11.6001 11.626C11.5998 11.2458 11.6732 10.8692 11.8159 10.5179C11.9586 10.1666 12.1679 9.84727 12.4318 9.57832C12.6958 9.30938 13.0092 9.09603 13.3541 8.95046C13.6991 8.8049 14.0688 8.72998 14.4422 8.72998Z" fill="#FF2E2E"/>
<path d="M41.8358 15.7559L40.2645 15.5379C39.6949 15.4479 39.3099 15.2979 39.1037 15.0899C38.9972 14.9713 38.9152 14.8321 38.8626 14.6806C38.81 14.529 38.7878 14.3683 38.7973 14.2079C38.7934 14.0388 38.8301 13.8712 38.9044 13.7199C38.9787 13.5686 39.0883 13.4382 39.2235 13.3399C39.5083 13.1239 39.9895 13.0139 40.6652 13.0139C41.2599 13.0178 41.8465 13.1544 42.3838 13.4139C42.9447 13.6769 43.4549 14.0399 43.8903 14.4859L46.1569 12.1239C45.8149 11.7916 45.4549 11.4791 45.0786 11.1879C44.7078 10.9027 44.3041 10.6649 43.8765 10.4799C43.3971 10.2771 42.8961 10.1314 42.3838 10.0459C41.7415 9.94132 41.0917 9.89247 40.4413 9.89991C39.6768 9.88977 38.9156 10.0039 38.1865 10.2379C37.5635 10.4411 36.9848 10.7643 36.4816 11.1899C36.0148 11.5895 35.6417 12.0904 35.3896 12.6559C35.1251 13.2479 34.9911 13.8916 34.9967 14.5419C34.9967 17.0752 36.568 18.5419 39.7106 18.9419L41.2309 19.1419C42.1736 19.2672 42.6444 19.6672 42.6431 20.3419C42.6516 20.5332 42.615 20.7238 42.5364 20.8978C42.4578 21.0717 42.3395 21.224 42.1913 21.3419C41.8888 21.5879 41.3467 21.7079 40.565 21.7079C39.8518 21.7202 39.1466 21.5526 38.5125 21.2199C37.8883 20.8788 37.3284 20.4278 36.8587 19.8879L34.5391 22.2879C35.2356 23.0772 36.0787 23.7182 37.0198 24.1739C37.9429 24.6179 39.0801 24.8392 40.4314 24.8379C41.2659 24.8492 42.0972 24.7305 42.8964 24.4859C43.5833 24.2758 44.2255 23.9366 44.7898 23.4859C45.2988 23.0806 45.7133 22.5656 46.0037 21.9779C46.2909 21.3869 46.4369 20.7352 46.4299 20.0759C46.4417 17.6132 44.9103 16.1732 41.8358 15.7559Z" fill="#FF2E2E"/>
<path d="M60.5265 18.362V17.162C60.5301 16.2316 60.4092 15.3051 60.167 14.408C59.9423 13.5678 59.5528 12.7827 59.022 12.1C58.4758 11.4154 57.7823 10.8679 56.995 10.5C56.0596 10.0784 55.0439 9.87345 54.0213 9.89999C53.063 9.88252 52.111 10.0621 51.2224 10.428C50.43 10.7631 49.7232 11.2782 49.1562 11.934C48.5788 12.6197 48.1475 13.4199 47.8893 14.284C47.5943 15.2738 47.4499 16.3037 47.4611 17.338C47.45 18.384 47.5998 19.4252 47.905 20.424C48.1679 21.2945 48.6136 22.0964 49.2112 22.774C49.8011 23.4246 50.5248 23.9347 51.3305 24.268C52.2399 24.6353 53.212 24.8148 54.1902 24.796C55.3618 24.8164 56.526 24.6037 57.6176 24.17C58.5564 23.7982 59.3932 23.2013 60.0571 22.43L58.0733 19.922C57.6427 20.3789 57.1601 20.7818 56.6356 21.122C56.0286 21.4789 55.3344 21.6523 54.6341 21.622C53.5696 21.622 52.7859 21.346 52.289 20.798C51.792 20.25 51.5426 19.512 51.5426 18.578V18.362H60.5265ZM51.5426 15.782C51.5426 14.8967 51.7691 14.1867 52.2222 13.652C52.6752 13.1173 53.3024 12.8507 54.1038 12.852C54.9026 12.852 55.4918 13.1187 55.8715 13.652C56.2512 14.1853 56.4424 14.8867 56.445 15.756V16H51.5347L51.5426 15.782Z" fill="#FF2E2E"/>
<path d="M87.1404 11.744V20.804C87.1403 21.9318 86.7414 23.022 86.0169 23.875C85.2924 24.7281 84.2905 25.2872 83.1945 25.45C82.9735 25.4838 82.7502 25.5006 82.5267 25.5C82.3038 25.5006 82.0812 25.4839 81.8609 25.45C80.7647 25.2876 79.7626 24.7286 79.038 23.8755C78.3134 23.0223 77.9147 21.932 77.915 20.804V15.866C77.915 14.0567 77.2747 13.1513 75.9941 13.15C75.4208 13.1463 74.8608 13.3261 74.3933 13.664C73.914 14.01 73.6744 14.534 73.6744 15.242V24.47H69.7285V15.87C69.7285 14.0607 69.0888 13.1553 67.8095 13.154C67.525 13.1534 67.2419 13.1945 66.9689 13.276C66.6964 13.3573 66.4426 13.4933 66.2225 13.676C66.0007 13.8575 65.8187 14.0844 65.6883 14.342C65.5513 14.6253 65.4839 14.9383 65.4919 15.254V24.482H61.542V12.488C61.5426 11.8856 61.7778 11.308 62.1961 10.882C62.6145 10.4561 63.1817 10.2165 63.7733 10.216H65.488V12.634H65.649C65.8953 11.8828 66.338 11.2141 66.9296 10.7C67.5333 10.1667 68.3595 9.90005 69.4083 9.90005C70.2829 9.87031 71.1441 10.1245 71.8674 10.626C72.5743 11.1573 73.0899 11.9107 73.3346 12.77H73.4132C73.5415 12.3638 73.736 11.9824 73.9887 11.642C74.2498 11.2856 74.5695 10.9777 74.9334 10.732C75.3223 10.4748 75.7439 10.273 76.1865 10.132C76.6674 9.97397 77.1701 9.89563 77.6753 9.90005C79.0247 9.90005 80.0617 10.388 80.7786 11.364C81.4425 12.2667 81.8006 13.5207 81.853 15.126C81.853 15.262 81.853 15.404 81.853 15.546V20.812C81.8532 20.9041 81.8717 20.9951 81.9074 21.0797C81.9432 21.1643 81.9954 21.2406 82.061 21.304C82.1266 21.3673 82.2041 21.4165 82.2889 21.4485C82.3736 21.4805 82.4639 21.4946 82.5542 21.49C82.7289 21.4748 82.8914 21.3926 83.0088 21.2601C83.1262 21.1275 83.1898 20.9545 83.1867 20.776V14.016C83.1867 13.7175 83.2444 13.4219 83.3567 13.1461C83.4689 12.8703 83.6335 12.6197 83.8409 12.4087C84.0483 12.1977 84.2945 12.0304 84.5654 11.9164C84.8363 11.8023 85.1267 11.7437 85.4199 11.744H87.1404Z" fill="#FF2E2E"/>
<path d="M97.6206 19.474C97.4376 20.0323 97.1426 20.5459 96.7544 20.982C96.3708 21.4087 95.7881 21.622 95.0064 21.622C94.2246 21.622 93.621 21.3553 93.1954 20.822C92.7849 20.29 92.5826 19.574 92.5826 18.67V16.018C92.5826 15.118 92.779 14.398 93.1954 13.868C93.6118 13.338 94.207 13.068 95.0064 13.068C95.699 13.068 96.2418 13.258 96.6346 13.638C97.0191 14.0117 97.2858 14.4935 97.4006 15.022L100.6 13.61C100.235 12.4931 99.5186 11.53 98.5614 10.87C97.6108 10.2153 96.4238 9.88932 95.0005 9.89199C94.0434 9.8751 93.0925 10.0497 92.2016 10.406C91.4133 10.7329 90.712 11.2448 90.155 11.9C89.5842 12.5881 89.1577 13.3878 88.9019 14.25C88.6052 15.2483 88.4615 16.2871 88.4756 17.33C88.4621 18.3774 88.6058 19.4208 88.9019 20.424C89.1528 21.2883 89.5798 22.089 90.155 22.774C90.718 23.4251 91.4202 23.9362 92.2075 24.268C93.0958 24.6348 94.0479 24.8144 95.0064 24.796C96.3943 24.796 97.5728 24.4767 98.5418 23.838C99.5107 23.1993 100.226 22.1993 100.687 20.838L97.6206 19.474Z" fill="#FF2E2E"/>
<path d="M114.365 14.2341C114.096 13.3702 113.657 12.5717 113.073 11.8881C112.508 11.2421 111.806 10.7353 111.02 10.4061C109.242 9.72075 107.279 9.72075 105.501 10.4061C104.715 10.7353 104.013 11.2421 103.448 11.8881C102.864 12.5717 102.424 13.3702 102.156 14.2341C101.841 15.2344 101.687 16.2798 101.7 17.3301C101.687 18.3797 101.841 19.4246 102.156 20.4241C102.426 21.2928 102.865 22.097 103.448 22.7881C104.009 23.4414 104.712 23.9523 105.501 24.2801C107.279 24.968 109.242 24.968 111.02 24.2801C111.809 23.9523 112.512 23.4414 113.073 22.7881C113.656 22.097 114.095 21.2928 114.365 20.4241C114.68 19.4246 114.834 18.3797 114.821 17.3301C114.833 16.2798 114.68 15.2344 114.365 14.2341ZM110.714 18.7961C110.714 19.7028 110.501 20.4001 110.075 20.8881C109.65 21.3761 109.045 21.6208 108.26 21.6221C107.475 21.6221 106.874 21.3761 106.446 20.8881C106.017 20.4001 105.807 19.7001 105.807 18.7961V15.9001C105.807 14.9948 106.02 14.2974 106.446 13.8081C106.874 13.3221 107.477 13.0761 108.26 13.0761C109.044 13.0761 109.647 13.3221 110.075 13.8081C110.503 14.2941 110.714 14.9941 110.714 15.9001V18.7961Z" fill="#FF2E2E"/>
<path d="M120.185 20.3V5.5H116.241V20.562C116.241 21.8287 116.556 22.7967 117.185 23.466C117.815 24.1353 118.806 24.4687 120.159 24.466H122.887V21.348H121.22C120.946 21.348 120.684 21.2378 120.49 21.0414C120.296 20.845 120.186 20.5785 120.185 20.3Z" fill="#FF2E2E"/>
<path d="M136.159 14.2341C135.889 13.3709 135.449 12.5727 134.866 11.8881C134.301 11.2421 133.6 10.7353 132.814 10.4061C131.036 9.72075 129.073 9.72075 127.295 10.4061C126.509 10.7358 125.806 11.2424 125.24 11.8881C124.658 12.5727 124.218 13.3709 123.948 14.2341C123.635 15.2346 123.482 16.2801 123.496 17.3301C123.482 18.3795 123.634 19.4243 123.948 20.4241C124.219 21.2921 124.659 22.096 125.24 22.7881C125.802 23.4409 126.506 23.9516 127.295 24.2801C129.072 24.968 131.036 24.968 132.814 24.2801C133.603 23.9523 134.306 23.4414 134.866 22.7881C135.448 22.096 135.888 21.2921 136.159 20.4241C136.474 19.4246 136.628 18.3797 136.615 17.3301C136.627 16.2798 136.473 15.2344 136.159 14.2341ZM132.508 18.7961C132.508 19.7028 132.294 20.4001 131.867 20.8881C131.44 21.3761 130.836 21.6208 130.054 21.6221C129.269 21.6221 128.664 21.3774 128.241 20.8881C127.819 20.3988 127.605 19.7014 127.601 18.7961V15.9001C127.601 14.9948 127.815 14.2974 128.241 13.8081C128.668 13.3221 129.273 13.0761 130.054 13.0761C130.836 13.0761 131.441 13.3221 131.867 13.8081C132.293 14.2941 132.508 14.9941 132.508 15.9001V18.7961Z" fill="#FF2E2E"/>
<path d="M148.894 11.3559C148.156 10.3852 147.067 9.8999 145.628 9.8999C144.527 9.8999 143.664 10.1712 143.039 10.7139C142.441 11.2246 141.989 11.8909 141.733 12.6419H141.576V10.2159H139.861C139.269 10.2159 138.702 10.4552 138.283 10.8812C137.864 11.3073 137.629 11.8851 137.628 12.4879V24.4699H141.576V15.2419C141.57 14.9243 141.643 14.6104 141.79 14.3299C141.931 14.0684 142.126 13.8412 142.362 13.6639C142.606 13.4787 142.882 13.3429 143.177 13.2639C143.481 13.1819 143.795 13.1409 144.11 13.1419C144.839 13.1419 145.346 13.3639 145.63 13.8079C145.914 14.2519 146.056 14.9352 146.056 15.8579V24.4579H150V15.5379C150 13.7286 149.631 12.3346 148.894 11.3559Z" fill="#FF2E2E"/>
<path d="M87.1402 10.046H84.909C84.6152 10.0468 84.3242 9.98856 84.0526 9.87464C83.7809 9.76071 83.5341 9.59333 83.3261 9.3821C83.1181 9.17086 82.953 8.91991 82.8405 8.64362C82.7279 8.36733 82.6699 8.07114 82.6699 7.77201C82.6702 7.47305 82.7283 7.17707 82.841 6.90101C82.9537 6.62496 83.1188 6.37424 83.3268 6.16322C83.5347 5.95219 83.7815 5.78499 84.053 5.67119C84.3245 5.55739 84.6154 5.49922 84.909 5.50001C85.5006 5.50054 86.0678 5.74008 86.4862 6.16605C86.9045 6.59202 87.1397 7.1696 87.1402 7.77201V10.046Z" fill="#FF2E2E"/>
</g>
<defs>
<clipPath id="clip0_404_1807">
<rect width="150" height="31" fill="white"/>
</clipPath>
</defs>
</svg>
