<svg width="33" height="33" viewBox="0 0 33 33" fill="none" xmlns="http://www.w3.org/2000/svg">
<path d="M16.3997 30.1333C23.7635 30.1333 29.7331 24.1638 29.7331 16.8C29.7331 9.43621 23.7635 3.46667 16.3997 3.46667C9.03594 3.46667 3.06641 9.43621 3.06641 16.8C3.06641 24.1638 9.03594 30.1333 16.3997 30.1333Z" stroke="#00C3D0" stroke-width="2.66667" stroke-linecap="round" stroke-linejoin="round"/>
<path d="M16.3999 24.8C20.8182 24.8 24.3999 21.2183 24.3999 16.8C24.3999 12.3818 20.8182 8.80005 16.3999 8.80005C11.9816 8.80005 8.3999 12.3818 8.3999 16.8C8.3999 21.2183 11.9816 24.8 16.3999 24.8Z" stroke="#00C3D0" stroke-width="2.66667" stroke-linecap="round" stroke-linejoin="round"/>
<path d="M16.4001 19.4668C17.8728 19.4668 19.0667 18.2728 19.0667 16.8001C19.0667 15.3273 17.8728 14.1334 16.4001 14.1334C14.9273 14.1334 13.7334 15.3273 13.7334 16.8001C13.7334 18.2728 14.9273 19.4668 16.4001 19.4668Z" stroke="#00C3D0" stroke-width="2.66667" stroke-linecap="round" stroke-linejoin="round"/>
</svg>
